<?xml version="1.0" encoding="UTF-8" standalone="no"?>
<svg
   xmlns:dc="http://purl.org/dc/elements/1.1/"
   xmlns:cc="http://creativecommons.org/ns#"
   xmlns:rdf="http://www.w3.org/1999/02/22-rdf-syntax-ns#"
   xmlns:svg="http://www.w3.org/2000/svg"
   xmlns="http://www.w3.org/2000/svg"
   id="SVGRoot"
   version="1.1"
   viewBox="0 0 200 200"
   height="200px"
   width="200px">
  <defs
     id="defs5034" />
  <metadata
     id="metadata5037">
    <rdf:RDF>
      <cc:Work
         rdf:about="">
        <dc:format>image/svg+xml</dc:format>
        <dc:type
           rdf:resource="http://purl.org/dc/dcmitype/StillImage" />
        <dc:title></dc:title>
      </cc:Work>
    </rdf:RDF>
  </metadata>
  <g
     id="layer1">
    <path
       id="rect5134"
       d="m 76.956701,23.013926 c 9.427188,-9.427184 30.568979,-9.427184 39.996159,0 38.43391,38.433906 0,163.061254 0,163.061254 H 76.956701 c 0,0 -38.433906,-124.627348 0,-163.061254 z"
       style="fill:#718c53;fill-opacity:1;stroke:#6c7261;stroke-width:6.71990585;stroke-linecap:round;stroke-linejoin:round;stroke-miterlimit:4;stroke-dasharray:none;stroke-opacity:1;paint-order:stroke markers fill" />
    <path
       id="rect5679"
       d="m 11.218866,74.933463 c 10.732487,-10.732487 45.534087,0 45.534087,0 v 33.227567 c 0,0 -34.8016,10.73249 -45.534087,0 -7.8318131,-7.83181 -7.8318131,-25.395754 0,-33.227567 z"
       style="fill:#718c53;fill-opacity:1;stroke:#6c7261;stroke-width:6.71990585;stroke-linecap:round;stroke-linejoin:round;stroke-miterlimit:4;stroke-dasharray:none;stroke-opacity:1;paint-order:stroke markers fill" />
    <path
       id="rect5681"
       d="m 132.42683,49.535304 c 10.95805,-14.342507 39.32807,-18.137574 53.67057,-7.179533 8.80109,6.724254 11.12987,24.133129 4.40562,32.934213 -10.95804,14.342505 -53.67057,7.179532 -53.67057,7.179532 0,0 -11.12987,-24.133129 -4.40562,-32.934212 z"
       style="fill:#718c53;fill-opacity:1;stroke:#6c7261;stroke-width:6.71990585;stroke-linecap:round;stroke-linejoin:round;stroke-miterlimit:4;stroke-dasharray:none;stroke-opacity:1;paint-order:stroke markers fill" />
    <path
       id="path5816"
       d="m 71.457695,36.850523 c 1.573353,-2.089581 3.142746,-3.372733 4.771766,-4.439539"
       style="fill:none;fill-opacity:1;stroke:#f3f2e2;stroke-width:0.29065812px;stroke-linecap:butt;stroke-linejoin:miter;stroke-opacity:0.98492462" />
    <path
       id="path6247"
       d="m 100.84136,28.918402 c -1.387641,1.366103 -2.675041,2.932824 -3.807141,5.290826 z m -16.479447,5.049345 c -1.067339,-0.028 -2.219011,0.04189 -3.509088,0.256709 l 6.517814,0.07179 c -0.95779,-0.174891 -1.94139,-0.300496 -3.008726,-0.328499 z m 3.946366,0.613492 c -1.26913,1.476855 -2.42054,3.144829 -3.352453,5.58887 z m 11.762951,0.924589 c -1.947241,-0.0075 -3.964231,0.198007 -6.428621,1.074699 z m -16.762261,3.96812 c -1.85382,0.595931 -3.706396,1.416302 -5.778139,3.013073 z m 17.351821,0.108775 5.74333,3.080513 c -1.53602,-1.19684 -3.25741,-2.266888 -5.74333,-3.080513 z m 59.20199,0.88543 c -0.38416,0.592439 -0.73862,1.225397 -1.07688,1.890513 l -0.41987,-1.031189 c 0.0904,0.41118 0.19661,0.82426 0.31328,1.240038 -0.39676,0.80644 -0.74876,1.697651 -1.05077,2.6998 -1.55892,-0.44175 -3.26111,-0.731925 -5.39308,-0.685283 l 5.35174,0.831041 c -0.10041,0.342975 -0.20868,0.669173 -0.29586,1.042067 l 0.43728,-1.020312 0.94633,0.147935 c -0.29142,-0.09779 -0.59412,-0.182233 -0.89412,-0.269762 l 1.01378,-2.358247 c 0.421,1.387402 1.02607,2.822547 2.0254,4.409746 l -1.90575,-4.68821 z m 12.77021,0.630896 c -0.66487,1.830228 -1.15174,3.797716 -1.15954,6.413386 z m -6.04572,0.132706 c -1.33311,1.419365 -2.55718,3.033909 -3.59612,5.434409 z m -17.47148,2.386528 c -0.33674,1.917903 -0.47322,3.940628 -0.0261,6.51781 z m -48.11345,0.156636 c -1.386841,1.366907 -2.674211,2.934346 -3.804961,5.293001 z m 81.45088,0.271938 c -1.81029,0.717394 -3.60567,1.65897 -5.56712,3.389436 z m -17.33878,0.487313 c 0.40348,1.904992 1.03146,3.834783 2.40829,6.058779 z m -0.83321,4.403221 c -1.86845,0.548318 -3.74237,1.321883 -5.85428,2.865138 z m 0.50907,1.013784 c -0.57579,1.860175 -0.96724,3.850439 -0.84845,6.463422 z m -62.69585,0.350256 c -1.89215,0.45995 -3.800561,1.144322 -5.982631,2.586675 z m 45.57028,1.168246 c -1.50648,0.04846 -3.11165,0.277725 -4.97972,0.876729 l 6.45906,-0.872377 c -0.4865,-0.01719 -0.97718,-0.02051 -1.47934,-0.0044 z m 32.78267,1.396674 c 0.26428,1.929231 0.7482,3.89744 1.96013,6.215415 z m -38.45203,0.824516 c -0.90094,1.726297 -1.64406,3.612792 -1.99711,6.204537 z m 39.55501,1.279196 5.41483,2.018867 c 0.47082,1.654348 1.15167,3.342063 2.42351,5.236439 l -2.28645,-5.184226 0.55476,0.206673 c -0.19673,-0.114381 -0.40697,-0.218554 -0.60915,-0.328502 l -0.28934,-0.657001 c 0.0492,0.19632 0.11283,0.394831 0.16752,0.591737 -1.49699,-0.801811 -3.16347,-1.479081 -5.37568,-1.883987 z m -42.34618,0.472085 c -0.52454,1.875271 -0.86267,3.874262 -0.67223,6.483002 z m -63.98158,0.465557 c -1.786005,0.775868 -3.549836,1.774507 -5.453988,3.567827 z m 105.47061,0.180568 c -0.12016,0.418131 -0.2263,0.845431 -0.32414,1.281371 -1.79242,-0.333195 -3.70011,-0.483691 -6.10882,-0.13053 l 6.09359,0.184917 c -0.33205,1.500091 -0.5104,3.138735 -0.37854,5.140717 l 0.56998,-5.13419 0.22843,0.0065 c -0.0739,-0.01498 -0.15201,-0.02261 -0.22626,-0.03698 z M 74.369822,58.437817 c -1.083391,1.618038 -2.027707,3.41203 -2.660641,5.950004 z m 9.25677,1.046417 c -1.890113,0.468242 -3.796037,1.1587 -5.971758,2.610605 z m -13.390227,1.551135 c -1.505073,1.23553 -2.928414,2.678924 -4.268339,4.925341 z m 114.046455,0.07397 c -0.0876,0.165489 -0.16569,0.342316 -0.25019,0.511243 -0.96804,-0.213672 -2.01562,-0.367725 -3.21322,-0.417696 l 3.08487,0.680933 c -0.7353,1.520122 -1.34116,3.204469 -1.65556,5.417005 l 1.77086,-5.390899 3.16536,0.700512 c -0.95583,-0.389905 -1.96149,-0.723452 -3.07616,-0.974626 z m -64.31661,0.959398 c -1.9472,0.0131 -3.96057,0.239475 -6.41555,1.14214 z m -25.355501,0.180567 c 0.25961,1.929866 0.74076,3.898864 1.94708,6.219766 z m 56.656651,0.369836 c -1.50634,1.233988 -2.93046,2.675946 -4.27268,4.92099 z m -62.789391,0.350256 c -0.11651,1.600702 -0.0678,3.275365 0.33938,5.219034 -0.25062,-0.04826 -0.47903,-0.107402 -0.74403,-0.147935 l 0.77013,0.261061 c 0.0819,0.379706 0.15251,0.751901 0.26541,1.155193 l -0.1066,-1.100805 5.24079,1.783913 c -1.49536,-0.811863 -3.144,-1.490528 -5.25384,-1.916619 z m 32.704351,1.311828 c -1.94675,-0.04381 -3.96786,0.124509 -6.44819,0.955046 z m 65.51531,0.400293 c -1.50876,0.949772 -2.97014,2.112811 -4.44238,3.878924 -1.03701,0.389593 -2.11384,0.903014 -3.27196,1.627277 l 2.86513,-1.153018 0.002,-0.0022 3.17841,-1.279196 c -0.84652,0.183314 -1.70117,0.423707 -2.58015,0.741847 z m -21.48529,2.734609 c -1.78438,0.58245 -3.57204,1.389929 -5.54752,2.884718 -0.56396,-6.71e-4 -1.15284,0.02142 -1.77957,0.07832 l 6.49388,0.556929 c -1.41076,-0.367873 -2.88886,-0.628387 -4.636,-0.637423 z m -16.04651,0.108775 c -0.25726,1.930182 -0.31175,3.956952 0.24148,6.513459 z m -2.17768,0.693986 c -0.26839,1.364568 -0.42627,2.793688 -0.35679,4.435852 -1.893,0.225312 -3.83442,0.666495 -6.12622,1.799143 l 6.12622,-1.779562 c 0.0283,0.651152 0.0842,1.328748 0.19581,2.060202 z m 26.01903,1.065997 5.69765,3.165359 c -1.51782,-1.219833 -3.22427,-2.314394 -5.69765,-3.165359 z m -59.95036,0.968099 c -1.93776,0.192078 -3.92343,0.602795 -6.28504,1.727351 z m -0.13054,3.496035 5.39308,3.657023 c -1.40423,-1.349041 -3.00445,-2.591067 -5.39308,-3.657023 z m -82.749647,1.605523 c -1.940187,0.165689 -3.9301,0.550189 -6.306786,1.642505 z m -14.730338,0.426398 c -0.965034,1.115216 -1.862255,2.344052 -2.649763,3.933311 -0.176806,0.302089 -0.346505,0.615972 -0.511245,0.939818 -1.190748,-0.114703 -2.4727031,-0.129136 -3.9572411,0.05221 l 1.281371,0.06962 c -0.633018,1.789864 -1.093195,3.720601 -1.094277,6.265452 l 1.116033,-6.263276 2.5279351,0.139232 c -0.139152,0.284767 -0.277544,0.572044 -0.406818,0.876729 -0.658655,0.118729 -1.338299,0.26956 -2.0689051,0.487313 l 1.9579531,-0.224084 c -0.315245,0.778807 -0.595808,1.628778 -0.828866,2.591026 l 1.153017,-2.628009 4.192196,-0.478611 c -1.279046,-0.07164 -2.607323,-0.03181 -4.070368,0.202322 l 0.356782,-0.811464 2.39088,0.130531 c -0.731118,-0.166611 -1.492451,-0.289957 -2.28428,-0.378538 l 0.187093,-0.424223 z m 96.644595,0.226252 6.17625,2.086309 c -1.7134,-0.925219 -3.58975,-1.69669 -6.17625,-2.086309 z m -90.973056,0.258885 c -1.832291,0.659162 -3.655779,1.541984 -5.671539,3.208868 z m 5.336511,3.60046 c -1.854442,0.593989 -3.709076,1.414123 -5.782489,3.008722 z m 15.456957,2.249471 5.978285,2.595376 C 46.25983,83.645704 44.456005,82.721209 41.911302,82.116007 Z m 33.250404,1.681665 c -1.651636,1.031446 -3.248575,2.280596 -4.866603,4.335779 z m -24.855134,0.03481 c 0.149567,1.941498 0.51776,3.936335 1.590293,6.322014 z m 36.803007,0.546051 c 0.17571,1.001305 0.42142,2.014477 0.79188,3.073988 -0.68875,1.182643 -1.30334,2.514859 -1.77956,4.200894 l 1.89486,-3.909377 c 0.32624,0.882356 0.72839,1.792875 1.2879,2.771592 l -1.11603,-3.124024 0.77665,-1.603346 c -0.30331,0.424122 -0.59547,0.866101 -0.87673,1.327057 z m -62.826386,2.856431 c -0.916618,0.278594 -1.834955,0.613457 -2.780294,1.065997 -0.221038,0.03246 -0.446201,0.07695 -0.670056,0.117477 l -0.348081,-0.913711 c 0.06142,0.31037 0.139936,0.624704 0.215376,0.937642 -1.253249,0.236012 -2.557238,0.604607 -3.989876,1.237862 -0.979163,-0.429267 -2.070251,-0.799797 -3.3481,-1.087753 l 2.97609,1.250915 c -0.125727,0.05873 -0.241992,0.09807 -0.369836,0.160987 l 0.448154,-0.128354 2.954334,1.240037 C 18.592783,90.62032 17.767325,90.161602 16.85167,89.749847 l 3.891977,-1.124736 c 0.0066,0.02616 0.01072,0.05213 0.0174,0.07832 -0.744839,0.398417 -1.503363,0.854212 -2.303858,1.45106 l 2.366948,-1.185649 c 0.284099,1.050953 0.677712,2.132577 1.253091,3.285016 -0.331403,0.554812 -0.652876,1.148655 -0.959398,1.814363 l 1.087752,-1.564191 c 0.18492,0.356791 0.381062,0.717536 0.60479,1.089933 l -0.482962,-1.266145 2.510532,-3.611335 c -0.930799,0.946339 -1.807501,2.006129 -2.621482,3.324171 l -1.207406,-3.16536 z m 83.465387,0.34808 c -1.06671,-0.04594 -2.21776,0.0049 -3.51126,0.197972 l 6.51345,0.180566 c -0.95471,-0.190968 -1.93547,-0.332597 -3.00219,-0.378538 z m 3.73316,0.422048 c -1.91531,0.351267 -3.85889,0.925237 -6.11969,2.240769 z m -90.413942,0.526473 c -0.05165,0.02653 -0.104839,0.06204 -0.156637,0.0892 l -0.01523,-0.03916 z m 50.210634,1.200878 6.41121,1.183474 c -1.827768,-0.671598 -3.795584,-1.166432 -6.41121,-1.183474 z m -55.018499,0.922414 c -0.267369,1.928802 -0.333146,3.954542 0.206673,6.513453 z m 7.860097,0.881074 c 0.476505,1.376617 1.078125,2.750416 2.038447,4.207431 -0.159313,1.158346 -0.224958,2.409888 -0.115301,3.861512 l 0.356782,-3.528657 c 0.26617,0.385417 0.537165,0.77109 0.859323,1.170419 l -0.824515,-1.501102 0.265411,-2.625831 c -0.197594,0.713359 -0.353996,1.460803 -0.47861,2.236415 z m 4.242233,0.06744 c 0.540513,1.870735 1.306784,3.746829 2.841208,5.865164 z m 45.870503,1.681669 c -0.188116,1.124718 -0.288126,2.300117 -0.261061,3.585231 -0.760021,0.242654 -1.541578,0.52798 -2.382176,0.928935 l 2.390878,-0.659181 c 0.03045,0.832063 0.10342,1.700282 0.278465,2.662823 l -0.01088,-2.736783 3.624391,-1.000735 c -1.164339,0.116187 -2.356923,0.335617 -3.626566,0.717915 z m -36.98357,0.878901 c -1.430923,0.482301 -2.862881,1.11231 -4.387991,2.123292 l 0.271938,-0.452505 c -0.169144,0.195983 -0.331217,0.407238 -0.496014,0.611319 -0.370887,0.253592 -0.74069,0.506761 -1.124736,0.811457 l 0.833218,-0.44815 c -0.960658,1.246307 -1.839185,2.680266 -2.577972,4.605536 l 2.876016,-4.766522 z m 2.445267,0.317628 c -1.776022,0.798447 -3.527042,1.820111 -5.408303,3.637437 z m 6.254574,0.422041 c -1.932603,0.238388 -3.907503,0.69889 -6.24152,1.879635 z m -16.507724,0.472086 c -0.260209,1.929793 -0.318713,3.956112 0.230603,6.513464 z m -0.868027,0.119651 c -0.01096,1.947224 0.191563,3.964833 1.063822,6.430793 z m 97.070994,0.615674 c 0.53444,1.872473 1.29408,3.752743 2.82163,5.876039 z m -84.88382,1.242208 c -1.01101,1.664215 -1.874804,3.497571 -2.395229,6.060961 z m 52.705939,0.89631 c -0.60031,1.277551 -1.10762,2.645211 -1.43801,4.287921 -1.49998,0.67559 -3.01044,1.55875 -4.63382,2.99784 l 4.59031,-2.81075 c -0.10751,0.56677 -0.19418,1.16534 -0.25453,1.80784 l 0.54822,-1.98623 0.67441,-0.41334 c -0.21267,0.0849 -0.42489,0.18648 -0.63742,0.27846 z m -74.502314,1.194346 5.817298,2.936935 c -1.565455,-1.15808 -3.311817,-2.18569 -5.817298,-2.936935 z m 55.275207,1.011615 c -1.890605,0.46625 -3.796686,1.15663 -5.973933,2.60625 z m 53.073598,2.24294 c 0.4076,1.90412 1.03969,3.83124 2.42133,6.05225 z m -39.150371,0.0892 c -0.55028,0.90483 -1.0494,1.87408 -1.48152,2.96956 -1.0482,-0.61006 -2.222883,-1.16483 -3.672249,-1.62293 l 3.580879,1.87528 c -0.32191,0.85413 -0.6097,1.77282 -0.82669,2.83904 l 1.07252,-2.71067 1.94708,1.02031 c -0.5763,-0.43973 -1.19639,-0.85599 -1.85353,-1.25309 z m 6.76582,0.21102 c -0.59281,1.85501 -1.00285,3.8408 -0.90719,6.45472 z m 12.141491,0.0413 c -0.83769,0.57923 -1.65758,1.22621 -2.46703,2.00798 -0.85352,0.37344 -1.73224,0.82243 -2.66717,1.42932 l 2.18204,-0.92242 c -0.57283,0.5994 -1.14223,1.25314 -1.70778,2.04497 l 2.38001,-2.32778 3.15013,-1.33142 c -0.85741,0.20089 -1.72158,0.45896 -2.6106,0.80059 z m 4.0051,0.004 c 0.33988,1.91736 0.90177,3.86636 2.20378,6.13492 z m -42.387524,0.2832 c -0.383491,0.6302 -0.735407,1.30274 -1.065997,2.01234 -0.935463,1.03792 -1.824727,2.24572 -2.647588,3.84194 l 2.255997,-2.95651 c -0.373963,0.93667 -0.697814,1.96509 -0.941993,3.16319 l 1.585942,-4.00728 1.05512,-1.38144 c -0.283464,0.26365 -0.559748,0.5445 -0.835393,0.82886 z m -25.499083,0.0957 c -1.326563,1.42548 -2.542127,3.04654 -3.570002,5.45181 z m 56.489146,0.009 c -0.0156,1.34026 0.0856,2.72528 0.419861,4.25746 -0.465901,-0.0387 -0.944901,-0.0635 -1.451051,-0.0631 -0.58371,5e-4 -1.19828,0.0308 -1.84918,0.0935 l 3.358981,0.26977 c 0.14214,0.60021 0.31807,1.22038 0.54605,1.87746 l -0.29588,-1.85788 2.8869,0.2306 c -0.92744,-0.23639 -1.89123,-0.41919 -2.93258,-0.52212 z m 25.592621,7.36191 c -0.42818,0.95021 -0.7921,1.96783 -1.07905,3.09356 -1.37577,0.6343 -2.76943,1.47428 -4.26398,2.76289 l 4.19437,-2.4866 c -0.13244,0.5568 -0.25234,1.13322 -0.33939,1.7578 -0.70796,0.3013 -1.43209,0.64473 -2.2016,1.09864 l 2.16462,-0.80712 c -0.0368,0.29687 -0.0863,0.57384 -0.11095,0.88979 l 0.24366,-0.93982 3.80931,-1.42061 c -1.20523,0.22845 -2.43062,0.57166 -3.72881,1.10734 l 0.48731,-1.87964 1.08557,-0.64395 c -0.34366,0.1317 -0.6871,0.28141 -1.03119,0.43293 z m 1.36622,0.98549 5.83905,2.8956 c -1.57381,-1.14669 -3.32818,-2.16255 -5.83905,-2.8956 z m -45.716044,3.27196 c -1.353322,1.40011 -2.601183,2.99684 -3.674427,5.3822 z m 24.302554,1.47064 c -1.75562,0.84237 -3.47927,1.90661 -5.314751,3.77015 z m 17.92398,0.77883 c -1.94554,0.0815 -3.95029,0.38003 -6.37205,1.3684 z m 0.56563,2.07326 c -1.39548,1.3581 -2.68979,2.91762 -3.83542,5.26907 z m -52.440526,0.72444 c -1.79862,0.74615 -3.579107,1.71713 -5.512726,3.47864 z m 28.755816,4.86879 c -1.941261,0.15271 -3.933711,0.5226 -6.317661,1.59898 z m 19.21188,1.91661 c -0.28754,1.9259 -0.37377,3.95076 0.13923,6.51564 z m -1.64686,0.21321 c -1.50712,0.02 -3.11592,0.2195 -4.99496,0.78317 l 6.4743,-0.75055 c -0.48609,-0.0264 -0.97697,-0.0393 -1.47934,-0.0326 z m -27.378721,0.0392 c -1.66472,1.01019 -3.27676,2.23841 -4.92099,4.27269 z m 17.758641,7.29447 5.85428,2.86514 c -1.57934,-1.13908 -3.33991,-2.14423 -5.85428,-2.86514 z m -30.467935,0.79405 c -0.672883,1.82731 -1.168947,3.79343 -1.187827,6.40904 z m 29.956695,0.68311 c 0.5013,1.88162 1.22521,3.77396 2.71503,5.9239 z m -1.29007,0.32416 c 0.23189,1.93339 0.6828,3.91007 1.8557,6.24804 z m -25.916788,2.05367 c -0.707008,1.81438 -1.23959,3.7703 -1.307479,6.3851 z m 24.615828,0.88107 c -1.93483,0.2195 -3.91348,0.65865 -6.258921,1.81655 z m -8.797741,2.68675 c -1.17946,0.0388 -2.44586,0.20104 -3.87239,0.56129 l 6.5004,-0.46339 c -0.48447,-0.0477 -0.97281,-0.0824 -1.47499,-0.0979 -0.37664,-0.0116 -0.75986,-0.0129 -1.15302,0 z m -1.88181,0.86586 c -0.17941,1.93897 -0.15307,3.96604 0.50254,6.49823 z m 10.446771,1.76868 c -0.93034,1.71063 -1.70636,3.5844 -2.10371,6.16973 z m 4.73172,3.17624 c -1.58949,1.12484 -3.1129,2.46493 -4.60989,4.60989 z m -15.050131,4.14868 5.699821,3.16101 c -1.519001,-1.21835 -3.225611,-2.31245 -5.699821,-3.16101 z m -15.198076,3.0827 4.944921,2.69544 c -0.588664,1.73548 -1.011874,3.61275 -1.002907,6.06095 l 1.050768,-6.03484 0.730969,0.39812 c -0.227739,-0.17991 -0.471275,-0.35038 -0.709214,-0.5243 l 0.04569,-0.26106 c -0.02769,0.0778 -0.04912,0.16098 -0.07614,0.2393 -1.351324,-0.98409 -2.889019,-1.87242 -4.984081,-2.57361 z m 17.188656,1.3488 c 0.27549,1.56045 0.72203,3.15038 1.57072,4.90794 -0.71203,1.57315 -1.28508,3.30654 -1.53591,5.58452 l 1.60334,-5.45182 c 0.17762,0.36065 0.34522,0.71724 0.56129,1.09429 l -0.48514,-1.35317 0.15881,-0.54169 c -0.069,0.14095 -0.129,0.29185 -0.19579,0.43509 z m 4.938391,2.18421 c -0.33459,1.02299 -0.60233,2.09911 -0.7723,3.28718 -0.24492,0.0102 -0.47044,0.004 -0.726621,0.0239 l 0.715751,0.0696 c -0.12881,0.93609 -0.20313,1.93491 -0.16969,3.06745 l 0.44815,-3.03917 5.3735,0.52864 c -0.0299,1.04538 0.0296,2.17036 0.2306,3.43078 l 0.0979,-5.59323 4.6882,1.55549 c -1.01068,0.74313 -2.02015,1.62948 -3.04787,2.83251 l 2.9391,-2.41481 c 0.1413,1.70239 0.48392,3.46331 1.30096,5.48226 -0.73417,-0.0926 -1.50164,-0.15844 -2.35608,-0.15881 l 2.46703,0.43945 c 0.0642,0.15193 0.10829,0.29301 0.17838,0.44816 l -0.11095,-0.43511 3.88111,0.69182 c -1.20332,-0.43394 -2.48462,-0.77585 -3.95072,-0.97028 l -1.39667,-5.50837 0.3807,-0.31328 0.68747,0.22843 c -0.19518,-0.10399 -0.40247,-0.19842 -0.60261,-0.29804 l 1.61857,-1.32706 c -0.62495,0.35634 -1.24263,0.7641 -1.86006,1.20958 -1.37084,-0.66111 -2.90157,-1.20355 -4.81439,-1.53373 l 0.0152,-0.8528 c -0.0515,0.27136 -0.0862,0.55384 -0.12835,0.83105 -0.14281,-0.0238 -0.26603,-0.0591 -0.41334,-0.0805 l 0.40465,0.13489 c -0.10476,0.70143 -0.18832,1.4172 -0.21104,2.1842 -1.58722,-0.42565 -3.28804,-0.69669 -5.35173,-0.64178 z m 11.93917,1.38798 c -0.21597,1.93524 -0.22918,3.96281 0.37854,6.50692 z m -29.963216,4.06601 c -1.704579,0.94138 -3.366931,2.10274 -5.092854,4.06819 z m 19.103096,1.40755 c 0.35661,1.22608 0.83476,2.4622 1.53808,3.75927 -0.52183,-0.21072 -1.07389,-0.41072 -1.67513,-0.59173 l 1.86006,0.94199 c 0.32587,0.56929 0.68858,1.14841 1.12691,1.75128 l -0.76143,-1.56636 3.58958,1.81655 c -1.09568,-0.81247 -2.29759,-1.554 -3.77015,-2.18857 z m -22.029149,3.46993 c -0.218398,1.93497 -0.232502,3.96207 0.372011,6.50693 z m 24.863839,3.46993 c 0.52926,1.87395 1.28254,3.75722 2.80422,5.88474 z m -16.007361,6.42644 c -1.87872,0.51204 -3.76728,1.24777 -5.90867,2.74984 z"
       style="fill:none;fill-opacity:1;stroke:#f3f2e2;stroke-width:0.29065812px;stroke-linecap:butt;stroke-linejoin:miter;stroke-opacity:0.98492462" />
    <path
       id="path6718"
       d="m 95.628849,20.175051 c -1.86888,0.546605 -3.74314,1.317295 -5.85646,2.858612 z m -11.049386,2.212487 c -1.067624,-0.01308 -2.217788,0.07174 -3.504736,0.304572 l 6.517812,-0.01958 c -0.96014,-0.161487 -1.94545,-0.271914 -3.013076,-0.284992 z m 6.093586,3.454701 c -1.30665,1.443762 -2.50165,3.082557 -3.49603,5.50185 z m 23.649901,8.789037 c -1.27589,1.470995 -2.43541,3.133916 -3.37855,5.573641 z m 0.0957,9.415581 3.83759,2.277753 c -0.66418,0.214334 -1.34633,0.463748 -2.07325,0.796234 l 2.37781,-0.615667 1.46194,0.868026 c -0.37811,-0.322049 -0.77081,-0.635074 -1.18347,-0.939818 l 3.65267,-0.944168 c -1.25856,0.105158 -2.54894,0.325985 -3.94201,0.748373 -1.14169,-0.811145 -2.44558,-1.556445 -4.13128,-2.190733 z m -25.496911,0.826691 c 0.2192,1.934873 0.65902,3.913308 1.81655,6.258926 z m -11.051561,0.08267 c -0.583698,-0.0014 -1.198069,0.02644 -1.849178,0.08702 l 6.493879,0.5417 c -1.414002,-0.365341 -2.893597,-0.624461 -4.644701,-0.62872 z m 44.530392,1.70342 c -1.83899,0.640243 -3.67135,1.504108 -5.70417,3.15013 z m -1.87746,1.318355 c 0.61697,1.846925 1.45812,3.69205 3.07834,5.745507 z m 48.28531,4.975377 c 0.63222,1.841762 1.48905,3.677235 3.1262,5.717225 z m -14.38443,0.230605 c -1.93287,0.236175 -3.90832,0.692862 -6.24369,1.870932 z m -35.04085,2.625833 c 0.33857,1.91759 0.9011,3.865465 2.20162,6.134921 z m -14.88694,1.294425 c -0.11564,1.943812 -0.0227,3.96936 0.71575,6.47865 z m 13.86231,0.115302 c -1.90616,0.397912 -3.83512,1.01838 -6.06313,2.388703 z M 66.831701,67.88603 c 0.506436,1.880241 1.236748,3.771511 2.732433,5.917371 z m 12.898563,4.677334 c -1.882227,0.499001 -3.776492,1.223488 -5.928248,2.710679 z m -2.197259,1.420605 c -0.678067,1.825378 -1.178919,3.789134 -1.205229,6.404684 z m -42.250463,5.434409 c 0.581882,1.858277 1.388518,3.7183 2.969562,5.802069 z m 69.720558,1.496746 c 0.28506,1.926272 0.79072,3.891058 2.02757,6.195836 z M 86.959469,82.45103 c -1.930268,0.25664 -3.901367,0.73563 -6.224122,1.938375 z m -44.149684,1.733877 c -1.241293,1.500325 -2.361977,3.188748 -3.248028,5.649785 z m 76.353665,1.692542 c -0.30141,1.20106 -0.50706,2.470215 -0.56345,3.889802 -0.31239,0.46635 -0.61849,0.964533 -0.91807,1.514151 l 0.90066,-1.124736 c -0.0119,0.69804 0.005,1.423295 0.0849,2.219013 l 0.1958,-2.569269 2.89341,-3.613513 c -0.99866,0.886801 -1.9522,1.891669 -2.85861,3.163183 z m -4.05731,1.642506 c -1.94025,0.16504 -3.9319,0.548812 -6.30896,1.64033 z m 1.00508,0.284991 c -0.278,1.927304 -0.35384,3.953322 0.17186,6.51563 z m 9.71145,0.01523 c -0.29665,0.960737 -0.54057,1.961074 -0.69398,3.058759 -0.17216,0.05096 -0.34521,0.112044 -0.51778,0.167513 l 0.009,-2.554042 c -0.14705,0.84382 -0.24342,1.718565 -0.28065,2.641062 -1.39143,0.468059 -2.81335,1.125001 -4.351,2.160276 l -0.21102,-3.221922 c -0.11286,1.077955 -0.14723,2.195647 -0.0609,3.40249 -0.0939,0.06553 -0.18362,0.116298 -0.27847,0.184912 l 0.28282,-0.13705 c 0.0704,0.947838 0.21031,1.944318 0.48296,3.052228 l -0.20885,-3.184933 4.33361,-2.095013 c -0.0348,1.128686 0.0314,2.339583 0.27194,3.715755 l 0.0109,-3.852812 0.51559,-0.248008 c -0.14078,1.020078 -0.2057,2.122463 -0.14793,3.374206 z M 77.063096,107.33226 c -0.583545,0.0135 -1.195471,0.0556 -1.844827,0.13272 l 6.506933,0.37853 c -1.422845,-0.32924 -2.911468,-0.5514 -4.662106,-0.51125 z m -4.733896,2.789 c -0.881836,1.73613 -1.603049,3.62864 -1.927497,6.22412 z m 31.23371,7.95365 c -0.5837,-3e-4 -1.19818,0.0274 -1.84918,0.0892 l 6.49606,0.53083 c -1.4147,-0.36263 -2.89578,-0.61914 -4.64688,-0.62002 z m 7.35973,0.58085 c -1.94719,-0.0162 -3.96465,0.18083 -6.43296,1.04642 z m -1.29442,2.88907 c -1.94685,-0.0392 -3.96769,0.13383 -6.44602,0.97027 z m -3.5613,3.6244 c -0.58335,0.0204 -1.19425,0.0696 -1.84265,0.15446 l 6.50911,0.30021 c -1.42666,-0.31232 -2.91642,-0.51576 -4.66646,-0.45467 z m -12.180651,1.70994 c -1.17356,1.29959 -2.24668,2.78929 -3.17406,4.82962 -0.004,0.003 -0.007,0.006 -0.0109,0.009 -1.14173,0.1214 -2.35576,0.36317 -3.71141,0.80277 l 3.322,-0.45904 c -0.80432,0.76357 -1.59681,1.6562 -2.38218,2.77594 l 2.47137,-2.45832 c 6.6e-4,-0.002 0.002,-0.003 0.002,-0.004 l 0.38071,-0.37855 2.66064,-0.36766 c -0.48656,-0.0156 -0.97724,-0.02 -1.47934,-0.002 -0.28402,0.0101 -0.57601,0.0323 -0.86803,0.0566 l 1.45107,-1.44236 c -0.53843,0.37916 -1.06611,0.80465 -1.5903,1.25962 z"
       style="fill:none;fill-opacity:1;stroke:#f3f2e2;stroke-width:0.29065812px;stroke-linecap:butt;stroke-linejoin:miter;stroke-opacity:0.98492462" />
  </g>
</svg>
