<?xml version="1.0" encoding="UTF-8" standalone="no"?>
<svg
   xmlns:dc="http://purl.org/dc/elements/1.1/"
   xmlns:cc="http://creativecommons.org/ns#"
   xmlns:rdf="http://www.w3.org/1999/02/22-rdf-syntax-ns#"
   xmlns:svg="http://www.w3.org/2000/svg"
   xmlns="http://www.w3.org/2000/svg"
   id="SVGRoot"
   version="1.1"
   viewBox="0 0 200 200"
   height="200px"
   width="200px">
  <defs
     id="defs5034" />
  <metadata
     id="metadata5037">
    <rdf:RDF>
      <cc:Work
         rdf:about="">
        <dc:format>image/svg+xml</dc:format>
        <dc:type
           rdf:resource="http://purl.org/dc/dcmitype/StillImage" />
        <dc:title></dc:title>
      </cc:Work>
    </rdf:RDF>
  </metadata>
  <g
     id="layer1">
    <path
       id="path50"
       style="fill:#f8a72f;fill-opacity:1;fill-rule:nonzero;stroke:none;stroke-width:0.53724587"
       d="m 106.73562,188.88811 h 3.96971 V 167.5761 h -3.96971 z" />
    <g
       transform="matrix(0.5372459,0,0,-0.5372459,77.095824,204.38055)"
       id="g52">
      <path
         id="path54"
         style="fill:#f8a72f;fill-opacity:1;fill-rule:nonzero;stroke:#f8a72f;stroke-width:3.43857551;stroke-linecap:round;stroke-linejoin:round;stroke-miterlimit:4;stroke-dasharray:none;stroke-opacity:1;paint-order:stroke markers fill"
         d="m 1.7067492,10.173277 0.024318,22.360714 2.5291074,2.552666 0.00532,0.0061 H 26.626208 V 31.498942 H 7.84789 L 24.306086,15.040745 21.765579,12.499479 5.3005438,28.964515 V 10.173277 Z" />
    </g>
    <path
       id="path56"
       style="fill:#f8a72f;fill-opacity:1;fill-rule:nonzero;stroke:none;stroke-width:0.53724587"
       d="m 77.095764,188.88811 h 3.969718 V 167.5761 h -3.969718 z" />
    <g
       transform="matrix(0.5372459,0,0,-0.5372459,108.7202,170.25772)"
       id="g58">
      <path
         id="path60"
         style="fill:#f2c08d;fill-opacity:1;fill-rule:nonzero;stroke:none"
         d="m 0,0 v 0 c 3.699,0 7.003,2.314 8.268,5.791 l 6.11,16.802 H -14.378 L -8.268,5.791 C -7.003,2.314 -3.699,0 0,0" />
    </g>
    <g
       transform="matrix(0.5372459,0,0,-0.5372459,79.080622,170.25772)"
       id="g62">
      <path
         id="path64"
         style="fill:#f2c08d;fill-opacity:1;fill-rule:nonzero;stroke:none"
         d="m 0,0 v 0 c 3.699,0 7.003,2.314 8.268,5.791 l 6.109,16.802 H -14.378 L -8.268,5.791 C -7.003,2.314 -3.699,0 0,0" />
    </g>
    <g
       transform="matrix(0.5372459,0,0,-0.5372459,58.067217,89.561012)"
       id="g66">
      <path
         id="path68"
         style="fill:#f9dfad;fill-opacity:1;fill-rule:nonzero;stroke:none"
         d="m 0,0 201.799,-0.171 c 0,-74.638 -60.525,-135.139 -135.171,-135.101 -74.797,0.038 -135.031,61.596 -135.031,136.394 v 21.5 0 C -48.613,7.951 -24.635,0.021 0,0" />
    </g>
    <g
       transform="matrix(0.5372459,0,0,-0.5372459,141.95301,13.999842)"
       id="g70">
      <path
         id="path72"
         style="fill:#ce202f;fill-opacity:1;fill-rule:nonzero;stroke:none;stroke-width:1.52180457"
         d="m -10.55677,-2.2400276 c 0,6.6244151 5.3704493,11.9933414 11.9933421,11.9933414 2.2431399,0 4.3356211,-0.6269835 6.1313504,-1.6983338 -0.079134,0.5569804 -0.1339188,1.1200481 -0.1339188,1.6983338 0,6.6244152 5.3704483,11.9948632 11.9933413,11.9948632 6.624415,0 11.994863,-5.370448 11.994863,-11.9948632 0,-0.5782857 -0.05478,-1.1413534 -0.133919,-1.6983338 1.79573,1.0713503 3.886689,1.6983338 6.129829,1.6983338 6.624415,0 11.994863,-5.3689263 11.994863,-11.9933414 0,-6.6244151 -5.370448,-11.9933414 -11.994863,-11.9933414 H -0.36220068 v 0.149137 C -6.1298397,-13.21376 -10.55677,-8.2511554 -10.55677,-2.2400276" />
    </g>
    <g
       transform="matrix(0.5372459,0,0,-0.5372459,114.68534,88.915773)"
       id="g74">
      <path
         id="path76"
         style="fill:#ffffd9;fill-opacity:1;fill-rule:nonzero;stroke:none"
         d="m 0,0 46.705,122.27 0.201,-0.046 c 4.216,8.707 13.135,14.712 23.458,14.712 14.387,0 26.049,-11.662 26.049,-26.048 V -2.348 c 0,-4.469 -3.497,-8.304 -7.966,-8.385 -4.553,-0.083 -8.269,3.582 -8.269,8.116 0,-4.483 -3.635,-8.118 -8.118,-8.118 -4.483,0 -8.118,3.635 -8.118,8.118 0,-4.483 -3.634,-8.118 -8.118,-8.118 -4.483,0 -8.117,3.635 -8.117,8.118 0,-4.483 -3.635,-8.118 -8.118,-8.118 -4.483,0 -8.118,3.635 -8.118,8.118 0,-4.483 -3.634,-8.118 -8.118,-8.118 -4.483,0 -8.117,3.635 -8.117,8.118 0,-4.483 -3.635,-8.118 -8.118,-8.118 -0.224,0 -0.446,0.009 -0.666,0.027 C 1.312,-10.29 -1.84,-4.818 0,0" />
    </g>
    <g
       transform="matrix(0.5372459,0,0,-0.5372459,166.48278,38.815125)"
       id="g78">
      <path
         id="path80"
         style="fill:#f8a72f;fill-opacity:1;fill-rule:nonzero;stroke:none"
         d="M 0,-0.84384279 18.915,8.556 0,17.113 Z" />
    </g>
    <g
       transform="matrix(0.5372459,0,0,-0.5372459,158.97838,25.507111)"
       id="g82">
      <path
         id="path84"
         style="fill:#000000;fill-opacity:1;fill-rule:nonzero;stroke:none"
         d="M 0,0 C 1.504,0 5.6277378,0.14446489 6.1267378,-1.9045351 7.4664627,-4.3036863 7.1500699,-6.836863 6.5627783,-8.2409294 6.0637783,-10.289929 1.504,-10.811 0,-10.811 c -1.936,0 -3.506,2.42 -3.506,5.405 C -3.506,-2.42 -1.936,0 0,0" />
    </g>
    <g
       transform="matrix(0.5372459,0,0,-0.5372459,145.76385,34.218279)"
       id="g86">
      <path
         id="path88"
         style="fill:#f97a72;fill-opacity:0.42211058;fill-rule:nonzero;stroke:none"
         d="m 0,0 c 0,-4.57 3.705,-8.275 8.275,-8.275 4.571,0 8.276,3.705 8.276,8.275 0,4.57 -3.705,8.275 -8.276,8.275 C 3.705,8.275 0,4.57 0,0" />
    </g>
    <g
       transform="matrix(0.5372459,0,0,-0.5372459,93.900438,137.74498)"
       id="g90">
      <path
         id="path92"
         style="fill:#f2c08d;fill-opacity:1;fill-rule:nonzero;stroke:none"
         d="M 0,0 C -29.96,0 -54.248,24.288 -54.248,54.248 H 54.248 C 54.248,24.288 29.96,0 0,0" />
    </g>
    <path
       id="path4915"
       d="m 139.1663,20.345683 c -0.90411,-0.573371 -1.48146,-1.230997 -2.00752,-2.286662 -1.30349,-2.61576 -0.88385,-5.209121 1.17623,-7.269204 1.8573,-1.857301 4.13988,-2.3723963 6.59439,-1.4881344 0.61378,0.2211212 1.13225,0.4039268 1.15217,0.4062337 0.0199,0.00248 0.0899,-0.7377048 0.15547,-1.6444814 0.28017,-3.8733058 4.07189,-6.3863475 8.0404,-5.3289375 2.35321,0.6270077 4.46174,3.5113079 4.46174,6.1032877 0,1.0182096 -0.0702,0.9917921 1.2124,0.4558606 1.51604,-0.6334406 3.20918,-0.5239341 4.89605,0.3166707 4.03181,2.0091256 4.71425,7.3756176 1.31725,10.3582286 -1.60105,1.405724 -1.80661,1.37542 -3.80945,-0.561671 -2.95135,-2.854484 -5.99967,-4.121713 -9.88229,-4.108227 -3.90886,0.01356 -7.05273,1.310249 -9.89088,4.079486 -0.99907,0.974809 -1.89084,1.772385 -1.98169,1.772385 -0.0909,0 -0.73626,-0.36218 -1.43427,-0.804835 z"
       style="fill:#f97a72;fill-opacity:1;stroke-width:0.27898529" />
    <path
       id="path54-0"
       style="fill:#f8a72f;fill-opacity:1;fill-rule:nonzero;stroke:#f8a72f;stroke-width:1.84736061;stroke-linecap:round;stroke-linejoin:round;stroke-miterlimit:4;stroke-dasharray:none;stroke-opacity:1;paint-order:stroke markers fill"
       d="m 107.63627,199.10428 0.0137,-12.0132 1.35877,-1.37142 0.003,-0.003 h 12.01321 v 1.93074 H 110.9367 l 8.84209,8.84211 -1.36487,1.3653 -8.84577,-8.84579 v 10.09553 z" />
  </g>
</svg>
