<?xml version="1.0" encoding="UTF-8" standalone="no"?>
<svg
   xmlns:dc="http://purl.org/dc/elements/1.1/"
   xmlns:cc="http://creativecommons.org/ns#"
   xmlns:rdf="http://www.w3.org/1999/02/22-rdf-syntax-ns#"
   xmlns:svg="http://www.w3.org/2000/svg"
   xmlns="http://www.w3.org/2000/svg"
   id="svg834"
   version="1.1"
   viewBox="0 0 297 210"
   height="210mm"
   width="297mm">
  <defs
     id="defs828">
    <clipPath
       id="clipPath222"
       clipPathUnits="userSpaceOnUse">
      <path
         id="path220"
         d="M 0,800 H 800 V 0 H 0 Z" />
    </clipPath>
  </defs>
  <metadata
     id="metadata831">
    <rdf:RDF>
      <cc:Work
         rdf:about="">
        <dc:format>image/svg+xml</dc:format>
        <dc:type
           rdf:resource="http://purl.org/dc/dcmitype/StillImage" />
        <dc:title></dc:title>
      </cc:Work>
    </rdf:RDF>
  </metadata>
  <g
     transform="translate(0,-87)"
     id="layer1">
    <g
       id="g216"
       transform="matrix(0.31490709,0,0,-0.31490709,-20.86017,257.08715)">
      <g
         transform="matrix(1.289396,0,0,1.289396,-19.190051,-22.122588)"
         clip-path="url(#clipPath222)"
         id="g218">
        <path
           id="path224"
           style="fill:#fac570;fill-opacity:1;fill-rule:nonzero;stroke:none;stroke-width:1.4132719"
           d="M 1009.4963,76.444006 H 66.311124 V 368.43304 H 1009.4963 Z" />
        <g
           transform="matrix(1.4132719,0,0,1.4132719,1009.4968,310.41413)"
           id="g226">
          <path
             id="path228"
             style="fill:#face87;fill-opacity:1;fill-rule:nonzero;stroke:none"
             d="M 0,0 C -1.186,0.466 -2.374,0.925 -3.568,1.371 -46.302,17.35 -94.435,20.423 -137.752,6.1 c -56.759,-18.768 -105.023,-66.235 -164.803,-66.57 -40.906,-0.229 -79.226,22.28 -120.126,22.99 -38.22,0.664 -73.884,-17.629 -111.011,-26.73 -43.952,-10.775 -90.994,-8.209 -133.685,6.72 v -104.957 c 1.328,-1.061 2.675,-2.099 4.045,-3.105 h 232.466 c 62.418,9.896 125.836,13.562 188.304,5.047 10.286,-1.402 20.515,-3.139 30.716,-5.047 H 0 Z" />
        </g>
        <g
           transform="matrix(1.4132719,0,0,1.4132719,1009.4968,223.50696)"
           id="g230">
          <path
             id="path232"
             style="fill:#fad8a0;fill-opacity:1;fill-rule:nonzero;stroke:none"
             d="m 0,0 c -14.115,6.433 -28.579,11.978 -43.588,15.974 -37.297,9.929 -78.95,9.453 -112.423,-9.762 -31.239,-17.932 -54.192,-51.108 -89.239,-59.419 -33.128,-7.856 -66.626,8.999 -96.197,25.871 -35.349,20.169 -74.07,41.942 -114.228,35.338 -20.99,-3.452 -39.863,-14.427 -59.796,-21.853 -49.083,-18.285 -105.998,-13.843 -151.906,11.24 V -104.058 H 0 Z" />
        </g>
        <g
           transform="matrix(1.4132719,0,0,1.4132719,273.89292,202.28527)"
           id="g234">
          <path
             id="path236"
             style="fill:#c79d58;fill-opacity:1;fill-rule:nonzero;stroke:none"
             d="M 0,0 C 2.347,1.106 4.699,2.289 7.246,2.782 9.41,3.2 11.636,3.104 13.837,3.006 27.46,2.401 41.083,1.796 54.706,1.191 c 1.963,-4.674 5.16,-8.823 9.178,-11.912 4.535,3.771 11.202,3.601 16.881,2.011 5.68,-1.591 11.029,-4.389 16.856,-5.306 4.616,-0.726 9.345,-0.239 13.986,-0.785 10.099,-1.188 18.942,-7.104 28.54,-10.464 9.638,-3.373 19.962,-4.138 30.147,-4.875 -6.22,-6.599 -15.684,-8.768 -24.562,-10.619 -13.237,-2.76 -26.511,-5.525 -39.983,-6.69 -18.327,-1.584 -36.814,-0.186 -55.143,-1.751 -17.899,-1.529 -35.459,-5.867 -53.337,-7.615 -6.852,-0.67 -14.064,-0.9 -20.298,2.022 -7.542,3.535 -12.452,11.25 -14.603,19.297 -2.509,9.386 -5.449,21.467 4.879,24.751 C -21.642,-7.212 -10.68,-5.033 0,0" />
        </g>
        <g
           transform="matrix(1.4132719,0,0,1.4132719,387.40466,166.55917)"
           id="g238">
          <path
             id="path240"
             style="fill:#d9ab61;fill-opacity:1;fill-rule:nonzero;stroke:none"
             d="m 0,0 -0.179,3.546 c -5.687,-0.589 -11.59,2.394 -14.489,7.321 -0.581,9.308 -1.876,18.572 -3.868,27.684 -0.983,4.496 -5.015,7.668 -9.617,7.6 L -55.455,45.75 c -11.982,-0.177 -24.057,-0.346 -35.84,1.838 -3.515,0.651 -7.207,1.632 -9.634,4.256 -0.765,0.827 -1.426,1.831 -2.467,2.262 -1.791,0.741 -3.709,-0.515 -5.443,-1.382 -4.359,-2.18 -9.474,-1.997 -14.342,-1.766 -8.485,0.403 -16.969,0.806 -25.454,1.209 -7.339,0.349 -14.902,0.752 -21.533,3.915 -4.161,1.985 -7.813,5.001 -12.148,6.572 -4.962,1.798 -10.397,1.56 -15.669,1.299 l -29.214,-1.447 v -74.139 c 0.189,-0.107 0.372,-0.219 0.571,-0.315 5.521,-2.653 11.888,0.439 17.772,2.143 14.594,4.226 30.075,-0.422 44.818,-4.095 16.937,-4.219 34.431,-7.174 51.814,-5.586 15.451,1.412 30.893,6.389 46.193,3.81 6.67,-1.124 13.095,-3.669 19.843,-4.134 9.006,-0.622 17.784,2.488 26.521,4.757 6.754,1.753 13.633,3.017 20.568,3.786 5.686,0.631 16.565,-1.415 21.485,0.788 C 33.804,-5.365 -0.102,2.014 0,0" />
        </g>
        <g
           transform="matrix(1.4132719,0,0,1.4132719,330.27555,186.85955)"
           id="g242">
          <path
             id="path244"
             style="fill:#cca15b;fill-opacity:1;fill-rule:nonzero;stroke:none"
             d="m 0,0 c 0.719,2.804 0.675,5.736 0.836,8.626 0.349,6.286 1.696,12.515 3.974,18.383 1.255,-9.471 3.061,-18.868 5.404,-28.13 1.243,5.725 2.486,11.45 3.729,17.175 -0.222,-4.77 -0.436,-9.627 0.778,-14.245 1.214,-4.618 4.101,-9.045 8.495,-10.916 3.034,-1.292 6.438,-1.257 9.727,-1.492 5.245,-0.375 10.436,-1.49 15.371,-3.303 -4.514,0.3 -8.1,-3.45 -11.632,-6.278 -10.443,-8.364 -25.887,-9.891 -37.765,-3.733 -2.445,1.267 -4.819,2.911 -6.185,5.303 C -11.643,-10.948 -1.7,-6.626 0,0" />
        </g>
        <g
           transform="matrix(1.4132719,0,0,1.4132719,341.42668,169.05147)"
           id="g246">
          <path
             id="path248"
             style="fill:#cca15b;fill-opacity:1;fill-rule:nonzero;stroke:none"
             d="M 0,0 C -8.465,3.661 -17.284,7.393 -26.502,7.071 -31.658,6.89 -36.705,5.435 -41.861,5.232 c -5.156,-0.203 -10.826,1.163 -13.872,5.328 -1.263,1.727 -2.025,3.866 -3.678,5.225 -2.056,1.69 -4.955,1.762 -7.616,1.753 -9.109,-0.03 -18.218,-0.06 -27.327,-0.089 -3.902,-0.013 -8.12,0.075 -11.219,2.446 -5.128,3.924 -4.923,12.296 -9.978,16.314 -6.443,5.12 -17.403,0.194 -23.45,5.775 -1.517,1.4 -2.478,3.291 -3.793,4.882 -4.458,5.397 -13.294,6.447 -18.892,2.243 1.859,1.396 -0.311,6.814 -3.746,13.082 -0.006,-0.001 -0.013,-0.001 -0.02,-0.001 l -29.214,-1.448 v -74.139 c 0.189,-0.106 0.372,-0.219 0.571,-0.314 5.521,-2.654 11.888,0.438 17.772,2.142 14.594,4.227 30.075,-0.422 44.818,-4.094 16.937,-4.219 34.431,-7.174 51.814,-5.586 15.451,1.411 30.893,6.389 46.193,3.81 1.354,-0.229 2.697,-0.524 4.036,-0.84 11.282,-0.38 22.651,-1.418 33.649,-0.895 2.902,0.768 5.793,1.608 8.679,2.357 5.756,1.495 11.606,2.611 17.501,3.391 0.111,0.051 0.225,0.095 0.336,0.147 C 20.469,-8.853 10.234,-4.426 0,0" />
        </g>
        <g
           transform="matrix(1.4132719,0,0,1.4132719,1009.4968,162.78503)"
           id="g250">
          <path
             id="path252"
             style="fill:#d9ab61;fill-opacity:1;fill-rule:nonzero;stroke:none"
             d="m 0,0 c -24.07,6.648 -49.052,10.546 -71.692,21.012 -7.251,3.352 -14.201,7.404 -20.173,12.711 -2.908,2.583 -3.547,6.809 -4.004,10.672 l -2.893,24.464 c -0.483,4.082 -0.967,8.175 -0.996,12.286 -0.003,0.473 -0.004,0.962 -0.193,1.396 -0.731,1.679 -3.25,1.141 -4.897,0.34 -1.286,-2.08 -1.356,-4.658 -1.457,-7.102 -0.461,-11.13 -2.358,-22.2 -5.63,-32.848 -0.644,-2.098 -1.347,-4.204 -1.523,-6.391 -0.111,-1.37 -0.025,-2.809 -0.621,-4.047 -0.596,-1.238 -2.853,-2.258 -3.995,-1.494 0.322,2.451 0.103,4.971 -0.636,7.33 -0.479,1.529 -1.172,2.987 -1.611,4.529 -0.732,2.575 -0.731,5.294 -0.724,7.971 0.017,7.457 0.035,14.913 0.053,22.37 0.004,1.542 -0.011,3.161 -0.762,4.508 -0.751,1.347 -2.608,2.507 -3.982,1.808 -4.089,1.015 -6.226,5.748 -10.128,7.337 -4.311,1.757 -9.07,-0.83 -13.713,-1.176 -3.833,-0.286 -7.918,0.947 -11.405,-0.667 -1.284,-0.594 -2.384,-1.541 -3.684,-2.098 -2.143,-0.919 -4.58,-0.69 -6.891,-1.001 -3.654,-0.493 -7.025,-4.143 -10.238,-5.952 -1.632,-12.168 -3.265,-24.364 -3.579,-36.636 -0.093,-3.649 -0.074,-7.343 -0.974,-10.88 -1.196,-4.709 -4.016,-8.984 -7.907,-11.893 -11.202,-0.686 -22.045,-4.044 -32.76,-7.378 -5.314,-1.653 -10.628,-3.306 -15.942,-4.96 -16.688,-5.191 -33.477,-10.406 -50.81,-12.642 -0.043,-7.364 7.205,-16.091 13.509,-19.897 6.264,-3.782 12.846,-7.667 20.148,-8.137 6.209,-0.4 12.263,1.72 18.218,3.519 25.676,7.758 52.649,9.96 79.384,12.118 14.518,1.172 29.152,2.343 43.616,0.625 12.441,-1.478 24.529,-5.067 36.868,-7.239 13.6,-2.394 27.462,-3.056 41.269,-2.789 10.102,0.195 20.315,0.906 29.937,3.991 3.842,1.232 7.439,2.915 10.818,4.949 z" />
        </g>
        <g
           transform="matrix(1.4132719,0,0,1.4132719,908.17683,192.48112)"
           id="g254">
          <path
             id="path256"
             style="fill:#cca15b;fill-opacity:1;fill-rule:nonzero;stroke:none"
             d="m 0,0 c -3.693,1.707 -7.307,3.6 -10.754,5.743 -0.839,-1.418 -1.678,-2.837 -2.518,-4.256 -0.78,-1.32 -7.547,5.938 -8.08,6.108 -1.666,0.53 -4.685,-0.772 -6.88,-1.945 -0.521,0.955 -1.009,1.928 -1.425,2.933 0.412,0.741 0.825,1.481 1.237,2.221 -2.143,0.405 -4.286,0.809 -6.43,1.214 5.954,6.287 2.653,16.346 1.717,24.954 -0.909,8.354 0.82,16.86 0.74,25.218 -0.266,-0.099 -0.525,-0.206 -0.763,-0.321 -1.287,-2.08 -1.356,-4.659 -1.457,-7.102 -0.461,-11.13 -2.358,-22.2 -5.63,-32.849 -0.645,-2.098 -1.347,-4.203 -1.523,-6.391 -0.111,-1.369 -0.025,-2.808 -0.621,-4.046 -0.596,-1.239 -2.853,-2.258 -3.995,-1.494 0.322,2.451 0.103,4.971 -0.636,7.33 -0.479,1.529 -1.172,2.987 -1.611,4.528 -0.732,2.576 -0.731,5.294 -0.725,7.971 0.018,7.457 0.036,14.914 0.054,22.371 0.004,1.394 -0.014,2.851 -0.573,4.113 -2.684,-8.975 -5.369,-17.95 -8.053,-26.925 -0.501,-1.675 -1.007,-3.385 -0.957,-5.133 0.044,-1.531 0.513,-3.012 0.867,-4.503 1.19,-5.013 1.074,-10.329 -0.332,-15.285 -4.64,1.349 -9.557,1.738 -14.35,1.132 -6.297,2.927 -7.786,11.045 -8.463,17.956 -0.821,8.384 -1.642,16.768 -2.463,25.153 -1.227,-11.716 -2.454,-23.432 -3.68,-35.148 -1.9,0.401 -3.8,0.801 -5.7,1.201 0.516,5.991 0.308,12.044 -0.617,17.985 -1.233,7.914 -4.326,14.679 -4.333,22.688 -2.389,-5.274 -2.956,-11.352 -1.585,-16.977 0.786,-3.226 2.123,-6.879 0.272,-9.635 -0.501,-0.745 -1.21,-1.359 -1.558,-2.186 -0.311,-0.736 -0.301,-1.562 -0.309,-2.361 -0.043,-4.384 -0.761,-8.761 -2.122,-12.929 -0.248,-0.759 -0.542,-1.549 -1.153,-2.064 -0.563,-0.474 -1.314,-0.646 -1.976,-0.97 -2.109,-1.035 -3.096,-3.475 -4.841,-5.047 -0.965,-0.87 -2.145,-1.457 -3.309,-2.034 -1.399,-0.693 -2.816,-1.384 -4.252,-2.021 -1.102,-1.368 -2.366,-2.606 -3.777,-3.66 -11.201,-0.686 -22.044,-4.044 -32.76,-7.378 -5.314,-1.653 -10.628,-3.307 -15.942,-4.96 -11.227,-3.493 -22.501,-6.992 -33.956,-9.592 -1.16,-8.189 1.218,-16.899 7.799,-21.695 3.473,-2.531 7.72,-3.759 11.938,-4.583 4.787,-0.936 9.597,-1.401 14.425,-1.549 0.287,0.088 0.574,0.175 0.86,0.262 25.675,7.758 52.649,9.96 79.384,12.118 14.518,1.172 29.151,2.342 43.615,0.625 11.148,-1.324 22.013,-4.336 33.028,-6.512 0.783,0.204 1.567,0.408 2.349,0.613 13.11,3.431 26.294,6.943 38.532,12.763 3.047,1.449 6.065,3.049 9.152,4.427 1.232,-0.135 2.462,-0.287 3.687,-0.47 7.891,-1.178 15.739,-3.338 23.705,-2.894 2.841,0.158 5.738,0.747 8.44,1.76 v 10.516 C 47.621,-14.365 22.64,-10.466 0,0" />
        </g>
        <g
           transform="matrix(1.4132719,0,0,1.4132719,964.68609,169.52139)"
           id="g258">
          <path
             id="path260"
             style="fill:#c29956;fill-opacity:1;fill-rule:nonzero;stroke:none"
             d="m 0,0 c -13.32,1.336 -26.403,4.476 -39.227,8.319 -1.941,0.581 -3.978,1.185 -5.963,0.777 -2.376,-0.489 -4.216,-2.324 -6.389,-3.399 -3.197,-1.582 -6.938,-1.449 -10.501,-1.281 -9.922,0.469 -19.844,0.937 -29.766,1.406 -3.865,0.182 -7.903,0.333 -11.419,-1.281 -1.271,-0.584 -2.463,-1.395 -3.833,-1.675 -1.583,-0.324 -3.216,0.097 -4.759,0.575 -4.431,1.373 -8.707,3.246 -12.721,5.57 -0.853,0.494 -1.731,1.02 -2.712,1.113 -0.989,0.094 -1.959,-0.265 -2.887,-0.618 l -22.211,-8.441 c -7.887,-2.998 -15.801,-6.004 -24.007,-7.969 -7.314,-1.752 -14.828,-2.664 -22.348,-2.713 4.66,-8.054 11.052,-15.78 18.73,-21.292 16.256,2.64 32.779,3.988 49.212,5.315 14.518,1.172 29.152,2.342 43.616,0.624 11.147,-1.324 22.012,-4.335 33.027,-6.511 0.784,0.204 1.567,0.408 2.35,0.613 13.109,3.431 26.294,6.943 38.532,12.763 3.047,1.449 6.065,3.049 9.151,4.427 1.232,-0.136 2.462,-0.287 3.688,-0.47 7.891,-1.178 15.738,-3.338 23.704,-2.894 1.585,0.088 3.185,0.325 4.761,0.68 1.242,0.708 2.467,1.444 3.679,2.199 v 9.397 C 26.467,-3.319 21.183,-2.004 15.89,-0.722 10.586,-0.764 5.279,-0.53 0,0" />
        </g>
        <g
           transform="matrix(1.4132719,0,0,1.4132719,596.07793,174.60704)"
           id="g262">
          <path
             id="path264"
             style="fill:#c79d58;fill-opacity:1;fill-rule:nonzero;stroke:none"
             d="m 0,0 c 2.297,3.22 3.686,7.025 6.059,10.19 2.374,3.164 6.277,5.721 10.12,4.789 1.213,-4.781 3.981,-9.154 7.783,-12.296 6.261,-5.175 14.665,-6.731 22.671,-8.11 14.265,-2.456 28.531,-4.913 42.797,-7.369 -5.068,0.446 -9.357,-3.362 -13.818,-5.808 -5.838,-3.202 -12.594,-4.196 -19.186,-5.138 -21.257,-3.037 -43.317,-6.016 -64.638,-1.883 -5.633,1.092 -21.545,3.28 -14.23,12.086 C -17.032,-7.027 -5.765,-8.08 0,0" />
        </g>
        <path
           id="path266"
           style="fill:#fac570;fill-opacity:1;fill-rule:nonzero;stroke:none;stroke-width:1.4132719"
           d="M 1009.4963,76.444006 H 66.311124 V 165.78823 H 1009.4963 Z" />
        <g
           transform="matrix(1.4132719,0,0,1.4132719,193.05264,102.87247)"
           id="g268">
          <path
             id="path270"
             style="fill:#ebb969;fill-opacity:1;fill-rule:nonzero;stroke:none"
             d="M 0,0 -50.38,-5.602 -37.282,-18.7 H 18.7 Z" />
        </g>
        <g
           transform="matrix(1.4132719,0,0,1.4132719,773.75956,99.034168)"
           id="g272">
          <path
             id="path274"
             style="fill:#ebb969;fill-opacity:1;fill-rule:nonzero;stroke:none"
             d="M 0,0 -89.574,-4.218 -72,-15.984 H 53.186 Z" />
        </g>
        <g
           transform="matrix(1.4132719,0,0,1.4132719,489.49928,165.78837)"
           id="g276">
          <path
             id="path278"
             style="fill:#b8b2a1;fill-opacity:1;fill-rule:nonzero;stroke:none"
             d="M 0,0 -164.088,-63.218 H 37.91 L 12.286,0 Z" />
        </g>
        <g
           transform="matrix(1.4132719,0,0,1.4132719,192.64392,209.8703)"
           id="g280">
          <path
             id="path282"
             style="fill:#cca15b;fill-opacity:1;fill-rule:nonzero;stroke:none"
             d="M 0,0 C 0.872,1.928 2.393,3.577 2.858,5.641 3.487,8.432 2.157,11.77 3.962,13.988 4.945,10.082 5.935,6.117 5.833,2.091 5.784,0.119 5.472,-1.854 5.663,-3.817 c 0.488,-5.011 4.163,-9.292 4.614,-14.307 -2.167,1.777 -5.636,1.691 -7.714,-0.194 -4.286,-3.892 -4.884,1.998 -4.343,4.999 C -1,-8.99 -1.845,-4.08 0,0" />
        </g>
        <g
           transform="matrix(1.4132719,0,0,1.4132719,242.59559,207.05407)"
           id="g284">
          <path
             id="path286"
             style="fill:#cca15b;fill-opacity:1;fill-rule:nonzero;stroke:none"
             d="m 0,0 c 0.02,1.13 -0.005,2.281 0.322,3.363 0.346,1.145 1.065,2.141 1.48,3.262 0.594,1.603 0.536,3.363 0.47,5.071 C 2.966,9.678 2.503,7.471 2.533,5.338 2.566,2.962 3.219,0.645 3.709,-1.681 4.493,-5.401 4.865,-9.208 4.816,-13.01 4.81,-13.487 4.788,-13.993 4.524,-14.39 3.992,-15.188 2.669,-15.274 2.339,-16.175 2.147,-16.702 2.394,-17.298 2.267,-17.844 2.06,-18.733 0.907,-19.115 0.044,-18.819 -6,-16.74 -0.084,-4.647 0,0" />
        </g>
        <g
           transform="matrix(1.4132719,0,0,1.4132719,300.20112,178.95158)"
           id="g288">
          <path
             id="path290"
             style="fill:#cca15b;fill-opacity:1;fill-rule:nonzero;stroke:none"
             d="M 0,0 C 0.32,0.175 0.672,0.33 0.885,0.627 1.092,0.916 1.129,1.29 1.158,1.645 1.735,8.542 2.311,15.439 2.888,22.335 3.604,16.394 4.32,10.452 5.036,4.51 5.137,3.668 5.241,2.815 5.557,2.027 5.93,1.094 6.59,0.282 6.861,-0.686 7.132,-1.654 6.817,-2.926 5.852,-3.207 5.323,-3.361 4.743,-3.175 4.21,-3.311 3.206,-3.567 2.691,-4.852 1.669,-5.015 -0.974,-5.436 -2.584,-1.417 0,0" />
        </g>
        <g
           transform="matrix(1.4132719,0,0,1.4132719,278.97208,174.01715)"
           id="g292">
          <path
             id="path294"
             style="fill:#cca15b;fill-opacity:1;fill-rule:nonzero;stroke:none"
             d="M 0,0 C 0.272,0.149 0.572,0.28 0.752,0.533 0.928,0.779 0.959,1.097 0.984,1.398 1.474,7.26 1.964,13.122 2.454,18.984 3.063,13.933 3.671,8.883 4.28,3.833 4.366,3.117 4.455,2.392 4.723,1.723 5.041,0.93 5.601,0.24 5.832,-0.583 6.062,-1.406 5.794,-2.487 4.974,-2.726 4.524,-2.857 4.031,-2.699 3.578,-2.814 2.725,-3.031 2.288,-4.124 1.418,-4.262 -0.827,-4.62 -2.196,-1.204 0,0" />
        </g>
        <g
           transform="matrix(1.4132719,0,0,1.4132719,254.20689,187.29003)"
           id="g296">
          <path
             id="path298"
             style="fill:#cca15b;fill-opacity:1;fill-rule:nonzero;stroke:none"
             d="M 0,0 C 0.272,0.149 0.572,0.28 0.752,0.533 0.928,0.779 0.959,1.097 0.984,1.398 1.474,7.26 1.964,13.122 2.454,18.984 3.063,13.933 3.671,8.883 4.28,3.833 4.366,3.117 4.455,2.392 4.723,1.723 5.041,0.93 5.601,0.24 5.832,-0.583 6.062,-1.406 5.794,-2.487 4.974,-2.726 4.524,-2.857 4.031,-2.699 3.578,-2.814 2.725,-3.031 2.288,-4.124 1.418,-4.262 -0.827,-4.62 -2.196,-1.204 0,0" />
        </g>
        <g
           transform="matrix(1.4132719,0,0,1.4132719,181.98828,304.05342)"
           id="g300">
          <path
             id="path302"
             style="fill:#ff9e4d;fill-opacity:1;fill-rule:nonzero;stroke:none;stroke-opacity:1"
             d="m 0,0 c 0,-9.905 -8.029,-17.934 -17.934,-17.934 -9.905,0 -17.934,8.029 -17.934,17.934 0,9.905 8.029,17.934 17.934,17.934 C -8.029,17.934 0,9.905 0,0" />
        </g>
        <g
           id="g318"
           transform="matrix(1.1202598,0,0,1.1202598,-178.41409,-157.34308)" />
      </g>
    </g>
  </g>
</svg>
